<?xml version="1.0" standalone="no"?>
<!DOCTYPE svg PUBLIC "-//W3C//DTD SVG 20010904//EN"
 "http://www.w3.org/TR/2001/REC-SVG-20010904/DTD/svg10.dtd">
<svg version="1.0" xmlns="http://www.w3.org/2000/svg"
 width="1280.000000pt" height="992.000000pt" viewBox="0 0 1280.000000 992.000000"
 preserveAspectRatio="xMidYMid meet">
<metadata>
Created by potrace 1.15, written by Peter Selinger 2001-2017
</metadata>
<g transform="translate(0.000000,992.000000) scale(0.100000,-0.100000)"
fill="#000000" stroke="none">
<path d="M7111 9114 c-234 -63 -389 -308 -353 -558 14 -101 71 -221 136 -289
192 -200 484 -194 680 13 156 166 189 384 90 589 -33 67 -131 169 -194 201
-111 57 -249 74 -359 44z"/>
<path d="M4975 9091 c-92 -26 -153 -61 -216 -123 -100 -98 -160 -263 -145
-397 36 -312 327 -529 611 -456 204 53 355 262 355 490 0 141 -50 264 -145
360 -126 127 -295 174 -460 126z"/>
<path d="M5409 8071 c-185 -49 -370 -114 -399 -141 -53 -50 -185 -516 -215
-763 -6 -48 -10 -57 -24 -52 -132 51 -439 122 -652 150 -114 15 -130 15 -156
2 -57 -30 -342 -349 -384 -429 -19 -37 -19 -38 6 -157 41 -195 126 -469 194
-625 12 -27 20 -50 19 -51 -2 -2 -68 -22 -148 -45 -155 -45 -392 -135 -530
-203 -60 -30 -90 -51 -102 -72 -35 -62 -116 -525 -103 -586 14 -63 465 -481
602 -557 15 -9 7 -21 -58 -94 -195 -214 -429 -542 -429 -600 0 -54 59 -230
147 -438 53 -125 63 -136 141 -159 160 -48 450 -99 660 -116 45 -4 82 -8 82
-9 0 -2 -9 -45 -19 -97 -42 -201 -71 -464 -71 -643 l0 -100 53 -51 c119 -115
383 -311 433 -321 85 -16 721 253 778 329 18 25 19 31 7 79 -14 56 -35 88 -58
88 -7 0 -57 -22 -111 -49 -95 -47 -331 -145 -337 -139 -2 2 171 305 383 673
414 720 421 735 373 779 -18 16 -24 17 -51 6 -43 -18 -80 -63 -295 -363 -104
-146 -194 -265 -199 -263 -5 1 -14 9 -19 17 -7 12 38 78 195 285 233 307 235
310 248 355 19 66 -36 100 -99 63 -16 -9 -264 -268 -551 -575 -288 -307 -526
-557 -528 -555 -6 7 18 240 39 364 19 117 20 125 3 143 -13 14 -31 19 -70 19
l-52 0 15 56 c19 76 7 90 -90 99 -91 9 -344 51 -376 62 -20 8 68 58 640 367
365 197 679 372 697 389 20 19 32 40 32 56 0 44 -15 56 -67 56 -38 -1 -115
-29 -378 -137 -292 -120 -331 -134 -342 -120 -7 9 -13 19 -13 22 0 4 152 65
337 136 350 133 403 161 403 209 0 38 -26 55 -82 55 -35 0 -287 -62 -771 -190
-396 -105 -721 -189 -723 -187 -5 5 165 229 230 302 34 38 65 77 68 86 8 22
-14 52 -57 79 l-36 22 41 44 c40 43 46 59 32 79 -4 6 -50 45 -102 87 -52 42
-133 113 -180 157 -69 65 -81 80 -63 81 12 0 276 -18 585 -39 1006 -71 919
-67 964 -45 26 13 40 27 42 42 4 30 -30 68 -72 81 -25 8 -693 131 -711 131 -8
0 -6 38 3 44 4 2 160 -27 347 -65 187 -38 356 -69 375 -69 102 0 122 83 31
129 -21 11 -353 120 -737 242 -385 121 -703 225 -707 229 -11 10 134 70 295
121 73 24 139 47 146 52 18 14 15 52 -8 97 -11 22 -20 41 -20 43 0 3 22 7 50
11 83 11 86 27 38 160 -37 104 -111 356 -105 362 1 1 272 -196 602 -438 330
-241 617 -448 637 -459 90 -47 146 -3 103 81 -8 15 -136 139 -285 275 -222
202 -269 249 -259 261 6 8 16 14 21 14 5 0 118 -104 251 -231 133 -128 260
-245 281 -260 46 -34 86 -37 111 -9 32 35 7 85 -114 228 -59 70 -284 334 -500
587 -233 274 -386 461 -377 463 19 4 252 -44 358 -74 48 -13 91 -24 97 -24 22
0 40 33 46 84 l7 54 45 -19 c25 -10 50 -19 58 -19 25 0 40 34 61 139 27 135
84 351 93 351 4 0 138 -318 297 -707 159 -389 300 -720 313 -735 36 -44 58
-52 87 -33 43 28 34 83 -77 462 -55 190 -99 346 -97 348 1 2 12 5 23 7 18 3
27 -26 102 -302 111 -411 113 -418 144 -451 32 -34 52 -36 79 -9 15 15 20 33
20 75 0 30 -54 389 -120 797 -66 408 -118 744 -116 745 6 6 154 -133 256 -240
110 -115 124 -119 175 -44 l29 44 38 -49 c21 -26 47 -48 57 -48 10 0 93 76
189 172 94 95 174 170 176 167 3 -3 -48 -349 -114 -769 -133 -851 -132 -844
-64 -864 24 -7 65 28 83 72 6 15 51 179 100 365 49 186 92 341 95 344 3 4 14
2 25 -3 18 -8 13 -28 -80 -349 -100 -342 -116 -427 -89 -460 19 -23 63 -18 89
9 29 31 43 63 346 818 143 356 263 648 266 648 9 0 68 -215 95 -349 13 -63 30
-121 39 -130 15 -15 29 -13 118 16 14 4 17 -1 17 -40 0 -29 7 -53 19 -68 l19
-23 168 42 c180 44 293 66 301 58 2 -2 -214 -264 -481 -581 -268 -317 -495
-594 -506 -615 -25 -49 -25 -72 0 -95 18 -16 25 -17 61 -6 32 10 93 63 306
268 214 208 268 255 281 247 9 -6 17 -15 18 -20 1 -5 -116 -117 -261 -249
-250 -228 -305 -287 -305 -332 0 -23 30 -53 51 -53 39 1 140 71 697 483 331
246 604 447 607 447 7 0 -56 -220 -99 -346 -33 -94 -42 -132 -35 -145 9 -17
65 -39 102 -39 22 0 21 -2 -4 -51 -11 -22 -19 -53 -17 -67 3 -25 12 -30 146
-74 140 -45 300 -105 314 -117 4 -3 -320 -112 -719 -241 -638 -206 -730 -238
-760 -266 -38 -36 -41 -56 -13 -84 32 -32 91 -26 454 50 185 39 339 70 341 70
3 0 5 -11 5 -25 0 -14 -2 -25 -5 -25 -18 0 -667 -123 -695 -132 -80 -24 -108
-93 -50 -123 42 -22 78 -20 860 39 388 29 707 51 710 49 7 -7 -134 -138 -257
-240 -119 -98 -123 -109 -63 -168 l40 -39 -45 -29 c-24 -16 -47 -38 -51 -49
-7 -22 -11 -17 115 -164 100 -119 185 -238 173 -242 -5 -1 -331 81 -725 183
-394 102 -735 185 -757 185 -58 0 -80 -14 -80 -51 0 -57 34 -76 398 -213 188
-71 342 -131 342 -133 0 -2 -4 -13 -10 -23 -9 -17 -34 -9 -342 116 -368 148
-411 159 -444 109 -15 -23 -15 -27 1 -53 10 -15 27 -35 39 -44 11 -10 319
-177 683 -370 364 -194 662 -356 663 -359 0 -9 -250 -56 -370 -70 -52 -6 -101
-16 -109 -22 -13 -11 -11 -80 4 -119 6 -16 1 -18 -44 -18 -56 0 -96 -27 -87
-58 12 -39 46 -274 54 -371 l8 -105 -137 145 c-75 79 -314 331 -531 559 -411
433 -446 465 -494 440 -29 -16 -33 -64 -8 -111 8 -17 112 -157 230 -311 174
-226 213 -282 203 -294 -6 -8 -15 -14 -20 -14 -4 0 -105 133 -225 296 -242
331 -280 367 -329 317 -41 -40 -27 -67 383 -772 214 -369 386 -671 381 -671
-19 0 -246 93 -331 136 -120 60 -150 58 -164 -14 -7 -35 -24 -43 -24 -12 0 26
-111 100 -149 100 -34 0 -34 0 -123 -111 -80 -101 -248 -282 -255 -276 -2 2
-13 100 -23 218 -49 517 -171 1293 -219 1388 -41 79 -97 76 -118 -7 -6 -21 -8
-196 -5 -414 l5 -378 -34 0 -34 0 7 162 c3 90 7 268 8 396 2 212 0 235 -17
265 -14 24 -26 32 -47 32 -41 0 -63 -35 -86 -135 -35 -154 -202 -1017 -244
-1267 -23 -134 -44 -245 -48 -246 -11 -3 -112 117 -219 260 -67 90 -108 135
-124 139 -19 5 -43 -5 -96 -36 -73 -43 -96 -73 -86 -112 13 -48 212 -289 434
-525 97 -104 132 -135 161 -142 47 -12 580 -26 658 -17 l59 7 220 222 c121
122 256 266 299 319 l80 97 16 -27 c31 -50 329 -191 601 -282 104 -36 162 -50
181 -46 72 14 453 315 479 378 23 57 -13 473 -64 726 -14 70 -19 112 -12 112
36 0 301 32 378 45 119 21 331 71 382 90 22 9 47 26 56 38 48 67 199 483 199
547 0 30 -17 62 -91 171 -100 147 -237 321 -349 442 -39 42 -67 77 -62 77 36
0 390 308 526 457 83 91 86 95 86 142 0 109 -81 516 -113 564 -30 46 -418 205
-653 268 -65 17 -120 32 -122 34 -1 1 13 41 32 88 76 188 177 542 193 674 5
46 2 58 -19 91 -77 115 -350 407 -392 418 -62 15 -486 -65 -695 -132 -58 -18
-108 -34 -111 -34 -3 0 -7 12 -8 27 -16 196 -167 741 -218 788 -46 43 -457
165 -553 165 -43 0 -53 -5 -126 -66 -133 -109 -315 -285 -415 -402 l-95 -110
-30 37 c-130 157 -325 349 -493 483 -87 69 -101 71 -263 29z"/>
<path d="M8941 7984 c-168 -45 -309 -193 -355 -370 -20 -78 -20 -183 -1 -259
95 -364 549 -475 816 -198 150 155 186 366 95 558 -101 214 -336 328 -555 269z"/>
<path d="M3146 7920 c-87 -31 -157 -80 -217 -152 -136 -163 -157 -372 -58
-559 38 -70 136 -167 205 -202 158 -80 343 -78 486 6 64 37 145 128 179 200
117 250 3 565 -247 684 -74 35 -86 38 -184 41 -86 2 -116 -1 -164 -18z"/>
<path d="M9934 6045 c-185 -40 -351 -203 -393 -385 -13 -57 -13 -162 0 -219
27 -119 136 -259 244 -314 112 -56 261 -75 367 -47 184 50 327 213 359 407 10
62 9 86 -6 160 -23 119 -57 185 -135 264 -73 74 -159 121 -254 138 -74 14
-105 13 -182 -4z"/>
<path d="M2250 5970 c-134 -32 -264 -139 -325 -267 -14 -28 -32 -92 -41 -143
-14 -82 -14 -100 -1 -165 21 -99 61 -178 129 -251 234 -250 649 -183 804 131
35 71 39 86 42 176 4 79 0 111 -17 167 -50 167 -192 302 -366 348 -55 15 -170
17 -225 4z"/>
<path d="M9715 3861 c-91 -26 -160 -68 -224 -137 -143 -153 -170 -354 -74
-553 35 -73 139 -181 211 -219 193 -103 400 -77 556 69 163 152 207 388 110
587 -36 74 -131 172 -202 210 -116 62 -256 78 -377 43z"/>
<path d="M2457 3795 c-169 -46 -298 -172 -348 -338 -32 -104 -24 -235 20 -340
38 -88 111 -176 189 -225 275 -176 651 -15 737 315 68 261 -86 519 -352 588
-69 18 -180 18 -246 0z"/>
<path d="M8438 2111 c-198 -64 -328 -248 -328 -466 0 -382 391 -633 713 -457
68 37 169 136 200 197 84 167 76 360 -21 511 -122 187 -362 279 -564 215z"/>
<path d="M3801 2079 c-89 -15 -197 -74 -269 -145 -138 -138 -185 -337 -122
-519 76 -221 310 -365 529 -326 239 43 412 252 414 500 1 96 -16 168 -60 253
-64 123 -193 216 -329 238 -68 11 -88 11 -163 -1z"/>
<path d="M6060 1524 c-180 -47 -334 -189 -376 -346 -71 -267 138 -569 427
-618 304 -51 609 204 609 511 0 128 -52 243 -147 329 -135 120 -340 170 -513
124z"/>
</g>
</svg>
