<?xml version="1.0" standalone="no"?>
<!DOCTYPE svg PUBLIC "-//W3C//DTD SVG 20010904//EN"
 "http://www.w3.org/TR/2001/REC-SVG-20010904/DTD/svg10.dtd">
<svg version="1.0" xmlns="http://www.w3.org/2000/svg"
 width="1280.000000pt" height="800.000000pt" viewBox="0 0 1280.000000 800.000000"
 preserveAspectRatio="xMidYMid meet">
<metadata>
Created by potrace 1.15, written by Peter Selinger 2001-2017
</metadata>
<g transform="translate(0.000000,800.000000) scale(0.100000,-0.100000)"
fill="#000000" stroke="none">
<path d="M4555 7973 c-40 -40 -95 -124 -166 -253 -35 -63 -82 -146 -106 -184
-24 -39 -43 -74 -43 -79 0 -5 -25 -48 -56 -95 -32 -48 -70 -116 -86 -151 -47
-106 -267 -449 -468 -731 -114 -160 -264 -389 -328 -500 -17 -30 -54 -82 -82
-115 -174 -208 -208 -255 -575 -805 -101 -151 -206 -302 -234 -335 -94 -112
-248 -319 -325 -438 -42 -64 -111 -157 -152 -205 -68 -79 -93 -112 -173 -236
-14 -22 -64 -82 -111 -134 -136 -150 -202 -232 -295 -367 -52 -74 -115 -150
-154 -185 -255 -231 -311 -285 -311 -295 0 -7 -16 -25 -35 -39 -35 -27 -47
-67 -24 -81 18 -12 83 41 175 141 49 54 164 172 255 263 92 91 185 193 207
226 22 33 81 105 131 160 84 91 132 157 234 317 20 32 64 88 98 125 34 37 89
104 123 148 33 44 81 103 107 130 25 28 49 61 52 75 10 39 186 260 215 271 32
12 42 26 42 57 0 13 20 49 44 80 55 73 227 331 295 445 29 48 80 124 113 169
33 45 105 146 159 224 54 79 127 180 162 224 35 44 81 111 101 149 21 37 76
119 122 182 47 63 101 141 121 174 20 33 48 74 63 90 15 17 57 75 93 130 36
55 94 137 129 182 35 45 83 116 106 159 24 42 67 109 97 148 29 39 63 95 75
125 26 67 90 177 123 213 14 15 31 44 37 65 20 62 100 211 138 256 19 23 62
88 95 144 33 57 64 103 68 103 4 0 21 -11 37 -25 45 -38 71 -44 250 -60 92 -9
208 -20 257 -26 219 -25 292 -29 665 -35 611 -10 797 5 1212 97 183 40 281 50
376 39 106 -13 143 -25 247 -78 160 -83 239 -182 361 -448 l48 -106 -52 -46
c-43 -39 -55 -58 -71 -109 -10 -34 -52 -120 -94 -190 -41 -71 -90 -163 -110
-205 -52 -114 -187 -348 -409 -713 -47 -77 -120 -210 -161 -295 -42 -85 -104
-198 -138 -250 -34 -52 -98 -158 -142 -235 -44 -77 -90 -153 -103 -170 -12
-16 -48 -77 -79 -135 -32 -58 -99 -166 -150 -240 -50 -74 -135 -218 -189 -319
-113 -212 -196 -351 -346 -576 -137 -205 -213 -326 -278 -445 -29 -52 -106
-171 -172 -265 -216 -308 -237 -341 -265 -416 -33 -86 -110 -241 -192 -386
-177 -310 -243 -400 -243 -331 0 28 -77 99 -132 122 -86 36 -111 51 -205 130
-178 149 -228 188 -294 227 l-66 39 -374 -11 c-439 -14 -1944 -13 -2269 1
-245 10 -344 25 -484 72 -136 45 -178 70 -220 128 -20 27 -40 50 -45 50 -17 0
-51 -58 -51 -87 0 -17 12 -44 32 -67 45 -54 41 -84 -26 -209 -32 -59 -61 -129
-67 -161 -10 -47 -17 -59 -45 -77 -37 -23 -77 -70 -117 -141 -15 -26 -50 -67
-78 -90 -55 -48 -98 -109 -124 -180 -24 -65 -61 -97 -140 -119 -79 -22 -151
-61 -159 -87 -4 -11 1 -36 9 -56 9 -22 14 -50 10 -65 -7 -34 2 -42 83 -71 60
-22 71 -23 265 -16 111 3 227 11 257 16 107 19 745 34 1505 34 513 1 817 5
910 13 209 18 654 36 796 32 116 -4 129 -6 165 -30 63 -42 160 -88 269 -130
55 -20 125 -49 156 -62 30 -14 111 -39 180 -56 68 -17 147 -39 174 -50 67 -25
238 -45 339 -38 67 4 99 13 190 51 182 78 240 91 401 90 185 -1 383 -41 665
-134 113 -38 241 -74 285 -81 51 -8 87 -19 98 -31 27 -27 104 -63 182 -86 39
-11 140 -41 225 -66 166 -48 502 -137 586 -154 27 -6 90 -16 140 -22 64 -8
105 -19 146 -41 66 -34 348 -131 458 -159 41 -10 88 -23 103 -29 16 -6 93 -27
170 -47 210 -52 381 -102 481 -140 48 -19 134 -46 189 -60 56 -14 128 -38 162
-54 75 -36 155 -54 203 -45 122 22 280 142 302 228 6 23 17 57 25 75 8 18 24
72 34 121 13 59 37 123 75 197 30 60 73 159 94 219 22 61 58 151 79 200 22 50
53 128 68 175 35 106 100 258 200 465 101 210 151 329 164 387 6 26 106 242
222 480 256 523 312 641 394 824 35 78 120 254 189 391 135 270 229 470 338
713 38 85 75 162 83 171 8 8 15 27 15 41 0 14 9 33 20 43 11 10 20 30 20 46 0
15 20 65 46 111 68 126 226 452 263 545 18 45 40 88 48 94 39 33 66 113 92
279 14 85 49 172 111 270 56 90 97 181 106 238 8 50 -22 118 -68 157 -28 24
-36 25 -152 25 -138 0 -164 7 -254 63 -73 46 -73 47 -26 157 15 36 29 88 32
115 4 44 1 55 -22 82 -34 40 -53 46 -273 82 -141 23 -218 42 -345 85 -90 30
-192 60 -228 66 -63 11 -229 65 -445 145 -148 55 -390 122 -558 156 -81 16
-187 44 -235 62 -48 19 -125 44 -172 56 -112 30 -340 112 -465 168 -121 54
-184 69 -340 82 -200 18 -292 14 -371 -13 -244 -83 -424 -188 -604 -351 -137
-125 -141 -128 -155 -114 -8 8 -30 57 -50 109 -90 229 -155 317 -315 425 -221
149 -321 155 -830 56 -432 -83 -448 -85 -1035 -85 -384 0 -544 3 -580 12 -27
6 -133 18 -235 27 -207 16 -274 30 -375 80 -85 42 -104 43 -140 8z m4627 -253
c46 -11 103 -20 128 -20 70 -1 116 -15 287 -86 216 -90 674 -240 788 -259 50
-8 120 -23 155 -34 36 -11 130 -36 210 -56 197 -49 329 -90 430 -136 56 -24
129 -46 213 -63 138 -27 223 -52 302 -86 76 -33 196 -58 340 -71 72 -6 145
-17 163 -24 28 -12 32 -18 32 -53 0 -100 -65 -222 -249 -466 -155 -205 -232
-326 -388 -612 -167 -303 -350 -595 -481 -767 -70 -93 -122 -179 -232 -386
-77 -147 -107 -197 -297 -506 -44 -71 -120 -197 -169 -280 -48 -82 -178 -285
-289 -450 -110 -165 -239 -363 -285 -440 -145 -242 -409 -650 -633 -978 -37
-54 -88 -139 -113 -190 -64 -127 -145 -249 -184 -277 -27 -19 -51 -25 -133
-31 -96 -6 -101 -8 -160 -49 l-60 -43 -156 36 c-195 45 -191 44 -340 57 -97 8
-145 18 -224 45 -55 19 -109 35 -119 35 -10 0 -120 36 -245 79 -126 44 -313
107 -418 140 -104 34 -228 80 -275 102 -111 52 -183 75 -294 94 -50 9 -122 25
-161 36 -95 28 -342 148 -423 206 -88 62 -152 83 -287 89 -148 8 -223 -6 -294
-52 -86 -57 -201 -172 -223 -224 -26 -63 -68 -93 -68 -50 0 28 79 184 155 305
96 154 121 203 155 300 45 128 90 209 177 316 101 126 158 207 176 250 8 20
48 83 90 140 41 57 103 156 137 219 34 63 83 144 109 180 26 36 57 83 68 105
11 22 49 81 84 130 35 50 97 152 138 228 40 76 82 143 92 151 11 7 31 44 45
81 13 38 41 91 63 119 21 28 47 73 59 99 12 27 42 76 68 110 25 34 55 80 66
102 41 81 143 253 228 385 48 74 96 153 107 175 11 22 43 71 72 110 52 70 151
254 151 282 0 28 93 194 130 233 21 22 66 94 99 159 34 66 72 132 85 148 13
15 50 75 81 133 32 58 81 141 108 184 27 44 68 121 92 171 23 51 65 126 92
166 28 41 67 107 87 147 28 55 66 104 150 193 124 131 166 166 306 261 88 59
336 181 405 198 59 15 192 10 277 -10z m3088 -1230 c8 -14 8 -32 0 -59 -12
-44 -111 -275 -229 -534 -44 -98 -81 -180 -81 -182 0 -3 -31 -71 -68 -152 -38
-82 -84 -190 -102 -242 -50 -140 -157 -351 -243 -480 -42 -63 -84 -135 -93
-160 -64 -175 -148 -347 -280 -577 -84 -147 -199 -319 -248 -372 -24 -26 -75
-94 -115 -152 -39 -58 -98 -143 -131 -190 -115 -166 -305 -519 -502 -935 -32
-66 -80 -158 -107 -205 -27 -47 -71 -122 -96 -167 -26 -45 -65 -100 -86 -123
-27 -28 -39 -51 -39 -70 0 -36 -26 -106 -103 -280 -33 -74 -75 -173 -94 -220
-68 -169 -145 -290 -195 -306 -10 -3 -18 -13 -18 -22 0 -8 -21 -60 -46 -115
-44 -92 -45 -100 -30 -115 16 -16 18 -16 28 3 7 11 31 40 54 65 23 25 45 56
49 69 4 13 34 64 66 114 33 49 59 95 59 101 0 7 24 62 54 122 30 60 72 154 94
209 66 163 91 215 271 548 94 174 246 467 337 650 199 398 269 525 344 626 31
42 83 117 117 166 33 50 93 131 132 180 195 244 349 508 480 825 28 69 63 148
77 176 41 83 227 360 232 346 2 -8 -6 -44 -18 -80 -26 -77 -133 -323 -160
-367 -39 -65 -110 -217 -170 -365 -113 -280 -171 -392 -304 -579 -76 -108
-121 -199 -176 -356 -70 -200 -134 -315 -267 -482 -95 -119 -157 -215 -253
-393 -40 -74 -95 -170 -122 -213 -68 -108 -195 -382 -263 -567 -31 -85 -68
-177 -83 -204 -26 -47 -90 -102 -111 -94 -6 2 7 56 31 128 43 130 211 475 273
560 39 54 104 182 150 296 19 46 55 116 81 156 26 40 67 111 90 157 24 46 64
110 89 143 25 33 59 90 75 126 49 106 89 179 166 303 80 127 131 225 122 234
-13 13 -41 -11 -64 -57 -14 -28 -62 -106 -106 -175 -44 -69 -108 -178 -142
-242 -35 -64 -88 -154 -118 -201 -31 -47 -63 -103 -72 -125 -9 -21 -40 -75
-68 -119 -29 -45 -82 -148 -120 -230 -37 -82 -74 -156 -82 -165 -8 -9 -46 -80
-85 -158 -39 -78 -86 -167 -105 -196 -36 -57 -80 -157 -136 -312 -18 -49 -53
-130 -77 -179 -42 -84 -48 -116 -22 -116 6 0 51 39 100 87 49 47 91 84 94 81
17 -16 -76 -248 -168 -419 -87 -163 -128 -320 -98 -368 11 -17 21 3 42 82 6
27 37 83 69 130 50 71 67 108 122 272 153 448 262 736 366 965 17 36 72 136
124 222 51 86 120 206 153 268 33 61 90 149 126 195 93 118 222 309 273 408
24 45 60 137 81 202 44 143 74 204 169 347 177 267 185 282 274 503 33 83 89
213 125 290 36 77 99 214 141 304 42 90 90 205 107 255 17 50 79 188 139 307
135 269 183 380 264 617 74 212 121 331 141 351 11 11 16 9 30 -13 11 -16 26
-26 41 -26 46 0 36 -31 -98 -315 -55 -115 -126 -274 -159 -353 -33 -78 -119
-267 -193 -420 -73 -152 -142 -299 -151 -327 -10 -27 -45 -111 -78 -185 -32
-74 -88 -209 -124 -300 -36 -91 -94 -226 -130 -300 -60 -124 -104 -228 -233
-540 -70 -169 -101 -236 -152 -320 -66 -110 -88 -154 -218 -459 -131 -307
-223 -498 -307 -634 -55 -88 -134 -180 -162 -189 -12 -4 -12 -8 2 -28 9 -14
17 -34 17 -45 0 -49 -199 -487 -240 -530 -24 -25 -33 -46 -40 -91 -4 -32 -26
-97 -48 -144 -22 -47 -56 -121 -77 -165 -47 -102 -75 -139 -117 -151 -31 -9
-35 -16 -64 -99 -43 -126 -97 -225 -122 -225 -5 0 -47 29 -92 65 -45 36 -88
65 -96 65 -7 0 -65 49 -129 109 -63 60 -125 113 -136 116 -16 6 -27 1 -39 -15
l-17 -23 -106 22 c-58 11 -140 34 -184 50 -191 70 -283 104 -351 132 -46 19
-114 36 -180 45 -199 27 -277 43 -427 89 -174 53 -240 77 -312 118 -42 23 -76
32 -170 43 -126 16 -230 54 -273 99 -29 30 -18 48 23 39 60 -12 192 -56 322
-106 260 -101 527 -159 802 -177 113 -7 122 -9 213 -53 110 -53 251 -93 504
-143 99 -19 182 -35 186 -35 4 0 10 22 14 50 5 38 22 72 71 147 36 53 65 103
65 109 0 7 -9 16 -20 19 -11 3 -20 14 -20 23 0 28 127 280 180 359 28 40 50
78 50 86 0 20 82 183 124 247 20 30 41 73 47 95 6 22 36 83 68 135 31 52 62
106 68 120 6 14 31 52 56 85 24 33 82 128 127 210 82 148 220 429 220 446 0 5
-9 9 -20 9 -11 0 -20 2 -20 5 0 14 52 105 156 271 62 100 119 195 128 212 9
17 34 51 56 77 22 25 40 52 40 59 0 8 29 45 63 84 117 130 277 373 317 480 12
31 41 89 66 128 24 39 44 75 44 81 0 5 27 48 61 94 57 79 88 137 206 389 27
58 63 121 80 140 37 43 44 56 92 174 22 52 60 130 86 172 26 43 55 99 66 125
29 76 93 197 149 284 59 93 280 530 305 604 16 49 16 51 -5 79 -18 24 -20 33
-11 51 16 29 76 30 91 1z m331 -81 c47 -12 64 -33 62 -78 -1 -47 -56 -171
-125 -289 -46 -77 -61 -114 -88 -220 -36 -144 -98 -312 -137 -369 -33 -49 -53
-96 -53 -127 0 -70 -102 -322 -191 -471 -26 -44 -57 -105 -68 -135 -13 -34
-37 -71 -61 -95 -22 -21 -40 -45 -40 -53 0 -7 -18 -49 -41 -93 -22 -43 -47
-107 -54 -142 -8 -36 -40 -116 -74 -185 -33 -66 -81 -167 -106 -224 -26 -56
-75 -155 -110 -218 -36 -63 -86 -173 -113 -245 -27 -71 -81 -200 -120 -285
-38 -85 -89 -200 -112 -255 -23 -55 -82 -184 -131 -286 -49 -102 -89 -192 -89
-200 0 -8 -9 -27 -21 -44 -33 -49 -84 -153 -133 -275 -26 -63 -63 -143 -82
-178 -19 -34 -39 -87 -44 -117 -5 -30 -23 -83 -39 -117 -17 -34 -31 -70 -31
-79 0 -20 -217 -445 -247 -483 -13 -16 -28 -47 -34 -69 -6 -23 -26 -58 -44
-80 -18 -21 -62 -93 -98 -160 -162 -304 -220 -406 -249 -437 -34 -37 -67 -104
-68 -134 0 -15 5 -17 33 -12 17 4 46 8 62 9 26 2 30 -2 33 -27 5 -39 -15 -81
-44 -94 -13 -7 -64 -17 -113 -23 -98 -12 -102 -11 -180 47 -26 21 -70 39 -123
53 -46 12 -191 58 -323 102 -132 44 -267 85 -299 90 -169 26 -469 106 -616
164 -49 19 -97 35 -106 35 -10 0 -25 7 -34 15 -10 9 -46 20 -81 26 -35 5 -143
30 -239 55 -96 26 -323 83 -505 129 -181 45 -379 101 -440 124 -60 23 -135 45
-167 51 -32 5 -113 27 -180 49 -68 22 -150 48 -183 57 -33 10 -105 37 -160 62
-57 25 -160 59 -239 79 -76 18 -173 50 -215 69 -75 35 -78 36 -171 30 -53 -3
-118 -13 -146 -21 -42 -12 -52 -20 -62 -49 -7 -19 -32 -52 -56 -74 -41 -37
-49 -41 -122 -47 -124 -12 -321 2 -427 30 -51 14 -134 34 -186 45 -52 11 -114
32 -138 46 -43 25 -79 76 -68 95 11 17 -15 103 -40 134 l-23 30 -219 0 c-136
0 -280 -6 -383 -17 -289 -31 -625 -41 -1405 -43 -418 -2 -845 -8 -950 -14
-388 -22 -524 -33 -685 -51 -249 -29 -348 -34 -400 -20 -25 7 -73 15 -108 19
-61 6 -81 19 -82 49 0 42 183 59 865 82 176 6 385 15 465 20 80 6 429 16 775
25 752 17 799 19 1075 51 118 13 287 27 375 30 141 5 181 3 333 -20 190 -28
210 -30 231 -17 18 11 6 61 -14 61 -8 0 -51 16 -97 37 l-83 36 -235 -12 c-129
-7 -329 -21 -445 -31 -115 -10 -259 -21 -320 -24 -109 -6 -110 -5 -75 12 27
13 57 17 130 15 91 -2 128 4 253 44 52 16 65 43 20 43 -16 0 -50 -7 -78 -16
-27 -8 -113 -19 -190 -24 l-139 -9 -106 -53 -105 -53 -1050 -5 c-821 -4 -1059
-3 -1093 7 -45 13 -75 8 -69 -11 2 -6 24 -16 49 -23 26 -6 54 -16 65 -21 17
-10 17 -11 0 -18 -10 -3 -60 -4 -112 -2 -119 5 -129 13 -115 86 13 70 35 102
70 102 15 0 41 7 58 16 24 12 39 13 69 5 21 -5 88 -13 148 -16 61 -4 164 -13
230 -22 137 -18 155 -18 795 -10 576 6 872 27 1245 87 193 31 435 50 651 50
273 0 354 -21 589 -156 156 -89 171 -95 213 -88 27 4 49 1 70 -10 42 -22 44
-21 41 18 -2 19 -1 38 3 41 8 8 95 -70 109 -97 9 -16 3 -26 -32 -57 l-43 -38
52 -37 c42 -31 50 -41 42 -55 -16 -30 -37 -42 -63 -36 -36 9 -54 33 -64 84 -8
42 -11 45 -62 62 -29 10 -60 24 -67 30 -8 6 -21 9 -29 5 -23 -9 -18 -44 11
-71 24 -22 25 -26 13 -59 -15 -43 -8 -53 26 -38 40 19 65 14 101 -17 25 -22
47 -31 91 -37 32 -3 76 -16 98 -28 36 -19 56 -21 220 -21 l180 0 78 37 c101
48 137 75 137 99 0 39 -95 44 -138 6 -53 -46 -85 -42 -121 16 -20 32 -24 34
-80 35 -67 1 -155 15 -230 38 -52 15 -91 52 -91 86 0 54 -77 128 -133 128 -42
0 -63 14 -167 115 -53 50 -115 105 -139 120 -40 27 -44 28 -56 12 -7 -9 -17
-17 -23 -17 -6 0 -80 30 -164 68 l-153 67 -163 -2 c-184 -2 -307 -11 -732 -53
-270 -27 -380 -35 -910 -72 -105 -7 -417 -12 -777 -12 -331 -1 -605 -4 -609
-8 -12 -12 18 -39 35 -32 9 3 322 7 696 9 772 2 1256 21 1545 60 58 7 154 17
215 20 60 4 135 13 165 20 66 17 262 35 381 35 74 0 91 -3 120 -23 19 -13 63
-30 99 -39 36 -9 137 -48 225 -87 123 -55 169 -81 198 -111 77 -81 34 -92 -93
-23 -189 102 -289 142 -418 164 -81 14 -383 6 -582 -15 -74 -8 -238 -22 -365
-31 -267 -18 -384 -31 -423 -47 -27 -11 -480 -23 -1102 -30 -233 -2 -295 0
-405 17 -124 19 -175 21 -293 13 -49 -3 -56 0 -78 25 -25 30 -32 83 -14 117 5
10 24 23 42 30 39 13 277 25 793 40 209 6 452 17 540 25 89 8 400 26 693 40
293 13 536 26 540 29 35 21 533 49 647 37 179 -21 335 -74 455 -156 41 -29
109 -71 150 -94 104 -59 192 -123 275 -201 108 -102 136 -122 149 -111 6 5 27
42 46 80 18 39 38 71 42 71 12 0 57 -98 60 -130 3 -23 0 -25 -35 -22 -20 2
-45 -1 -54 -7 -14 -7 -10 -11 21 -19 21 -6 54 -23 74 -39 62 -49 71 -51 116
-38 29 9 49 9 70 2 27 -9 28 -11 10 -18 -35 -14 24 -10 101 6 38 8 89 15 112
15 46 0 241 -61 336 -104 36 -17 89 -31 140 -36 45 -5 118 -19 162 -31 115
-31 155 -38 190 -32 22 3 47 -3 82 -21 90 -45 252 -106 337 -126 44 -11 108
-29 141 -40 33 -12 102 -26 153 -31 73 -8 115 -19 186 -49 50 -21 138 -50 196
-64 114 -28 189 -51 375 -116 66 -23 194 -64 285 -91 91 -27 224 -69 295 -94
155 -53 280 -76 391 -73 88 2 74 7 269 -96 46 -24 94 -40 140 -47 39 -6 120
-30 180 -54 61 -24 149 -55 197 -70 l87 -27 34 21 c32 19 37 20 63 6 34 -17
87 -19 115 -5 11 6 33 39 49 73 16 34 58 97 92 139 67 81 175 245 171 259 -5
15 43 129 132 319 48 102 103 223 122 270 19 47 41 99 48 116 8 17 30 72 49
121 45 118 79 184 116 227 17 18 36 51 44 73 8 22 70 156 139 299 69 142 157
336 195 429 84 205 120 280 172 360 41 63 196 401 280 610 27 66 72 169 100
229 58 123 195 445 260 611 24 61 56 124 71 140 36 40 55 81 62 134 3 24 17
67 32 95 15 28 35 73 45 99 10 26 52 107 94 180 77 135 97 180 136 301 27 85
134 325 229 515 68 134 111 243 111 277 0 9 -34 52 -76 95 -100 103 -98 114
24 105 48 -4 103 -11 123 -17z m-451 -55 c0 -9 -15 -42 -34 -73 -18 -31 -68
-121 -111 -201 -43 -80 -108 -190 -145 -245 -89 -133 -157 -251 -280 -485 -57
-107 -143 -266 -193 -354 -49 -87 -107 -198 -127 -247 -43 -99 -87 -175 -155
-264 -25 -33 -81 -132 -124 -220 -124 -250 -215 -392 -391 -610 -60 -74 -147
-203 -218 -326 -23 -41 -63 -103 -88 -139 -25 -36 -63 -98 -85 -139 -22 -41
-62 -102 -88 -135 -66 -83 -75 -104 -111 -247 -57 -225 -108 -329 -225 -459
-88 -98 -134 -176 -270 -453 -68 -138 -156 -301 -195 -362 -39 -60 -84 -135
-100 -166 -22 -43 -37 -59 -62 -68 -58 -22 -97 -43 -102 -57 -3 -9 2 -14 14
-14 24 0 86 -54 106 -92 34 -66 2 -71 -211 -33 -185 33 -239 48 -297 84 -68
42 -129 58 -291 76 -362 39 -378 43 -627 125 -129 43 -300 97 -380 120 -80 23
-179 53 -220 67 -45 15 -116 29 -177 34 -242 21 -488 82 -643 159 -129 65
-541 221 -640 243 -36 8 -86 23 -111 33 l-46 18 -60 -27 c-33 -15 -69 -27 -80
-27 -27 0 -57 -23 -162 -124 -61 -59 -96 -86 -99 -77 -2 7 20 61 49 120 52
102 56 107 109 133 83 41 244 70 365 66 95 -3 103 -5 160 -40 62 -38 169 -75
313 -109 46 -10 142 -44 212 -74 71 -31 186 -74 257 -96 70 -22 182 -57 248
-79 66 -21 143 -41 170 -45 28 -4 71 -16 97 -26 51 -20 166 -41 323 -59 116
-13 252 -46 380 -90 50 -18 129 -40 177 -51 48 -11 122 -33 165 -50 42 -17
124 -41 182 -55 162 -37 189 -45 286 -82 111 -43 279 -92 313 -92 28 0 62 26
62 47 0 19 -34 30 -132 43 -113 15 -186 35 -299 80 -53 21 -132 46 -177 54
-91 17 -180 46 -214 70 -22 16 -22 16 22 16 108 0 224 -22 276 -51 61 -35 87
-36 139 -8 22 12 56 29 75 39 19 10 86 27 148 38 63 12 124 28 137 36 30 20
135 179 213 322 33 60 147 240 254 400 107 159 221 334 253 389 32 55 111 181
175 280 64 99 130 203 145 230 31 55 243 367 309 455 56 74 72 100 80 132 3
16 36 72 73 125 92 136 195 299 245 391 23 42 68 117 100 166 32 48 58 96 58
105 0 9 18 39 41 66 45 54 74 108 143 264 29 66 63 123 98 164 141 166 389
541 486 734 23 45 65 121 93 168 28 48 62 112 76 143 36 81 178 285 253 364
65 68 90 82 90 52z m120 -140 c0 -19 -72 -213 -187 -504 -89 -227 -155 -362
-203 -420 -28 -33 -29 -34 -30 -11 0 13 31 94 69 180 38 86 81 190 95 231 15
41 42 102 60 135 19 33 57 122 86 199 53 141 85 206 101 206 5 0 9 -7 9 -16z
m-2005 -3271 c-4 -10 -20 -53 -35 -95 -29 -81 -53 -122 -104 -175 -61 -67 -61
-35 0 95 26 53 64 118 86 145 40 47 67 62 53 30z m-9070 -544 c78 -21 99 -22
865 -31 555 -7 875 -6 1090 2 597 22 836 29 935 29 l100 1 85 -69 c47 -38 110
-94 140 -124 65 -65 113 -98 238 -162 129 -66 202 -158 202 -255 0 -54 -23
-53 -92 6 -63 54 -156 116 -253 168 -38 21 -113 69 -165 106 -107 76 -147 98
-239 129 -173 59 -351 72 -666 47 -115 -9 -289 -21 -385 -26 -96 -6 -215 -17
-265 -25 -49 -8 -191 -19 -315 -25 -289 -13 -374 -18 -545 -35 -313 -32 -1162
-52 -1185 -28 -17 16 -4 62 36 124 24 38 33 61 29 77 -4 18 2 30 26 50 18 15
55 50 83 78 l51 50 75 -32 c41 -18 111 -43 155 -55z m4474 -198 c120 -40 291
-122 365 -175 97 -69 156 -88 438 -144 127 -26 161 -37 259 -86 84 -41 149
-65 249 -90 74 -19 171 -50 215 -69 44 -19 107 -43 140 -52 128 -37 140 -42
140 -56 0 -11 -18 -14 -90 -12 -72 1 -117 9 -230 42 -77 23 -146 41 -153 41
-7 0 -48 16 -89 35 -42 20 -108 40 -147 46 -137 21 -360 100 -421 149 -45 36
-84 48 -190 60 -135 14 -264 67 -390 159 -38 28 -75 51 -81 51 -7 0 -65 -14
-130 -31 -66 -17 -152 -37 -191 -45 -124 -23 -161 -54 -218 -179 -38 -82 -69
-125 -91 -125 -19 0 -38 72 -30 115 6 28 14 39 36 49 18 7 45 36 68 72 46 72
110 129 211 190 151 92 196 100 330 55z m4048 -258 c-14 -26 -37 -59 -51 -72
-24 -23 -26 -23 -26 -5 0 27 47 124 73 152 l22 24 3 -25 c2 -14 -8 -47 -21
-74z m-4114 -123 c41 -16 103 -36 138 -45 131 -30 450 -146 569 -205 45 -23
123 -49 190 -65 63 -15 158 -39 210 -52 55 -15 141 -28 205 -32 79 -5 123 -13
158 -29 26 -11 47 -25 47 -29 0 -38 -77 -43 -151 -12 -27 12 -53 19 -56 15 -4
-3 3 -20 16 -36 l22 -30 -38 0 c-58 0 -109 17 -224 75 -65 33 -130 58 -168 64
-33 6 -89 16 -123 22 -35 6 -136 35 -226 65 -90 30 -171 54 -181 54 -17 0 -47
15 -132 64 -32 18 -72 29 -127 36 -44 6 -106 19 -138 30 -82 28 -145 26 -237
-10 -78 -30 -127 -38 -127 -21 0 16 93 93 135 111 68 30 139 58 152 59 6 1 45
-12 86 -29z m-1655 -97 c-10 -2 -26 -2 -35 0 -10 3 -2 5 17 5 19 0 27 -2 18
-5z m1610 -62 c37 -16 99 -34 138 -39 46 -6 95 -22 141 -46 39 -19 121 -49
181 -66 163 -45 282 -97 282 -122 0 -15 -54 -6 -290 46 -113 25 -259 64 -325
86 -103 36 -137 43 -244 50 -91 6 -128 13 -139 24 -15 15 -15 17 -1 32 19 19
135 63 167 63 13 1 54 -12 90 -28z m4012 0 c0 -5 -7 -14 -15 -21 -16 -14 -18
-10 -9 14 6 17 24 22 24 7z m-117 -196 c-3 -8 -9 -15 -14 -15 -10 0 -12 24 -3
33 11 11 24 -3 17 -18z m-5203 -28 c30 -15 53 -58 44 -82 -9 -23 -61 -14 -120
20 -43 25 -58 58 -31 68 23 10 82 7 107 -6z m5176 -45 c-16 -30 -46 -60 -46
-46 0 5 9 24 20 42 24 40 46 43 26 4z m-2796 -61 c89 -43 152 -65 220 -79 106
-22 203 -59 194 -74 -13 -21 -155 -3 -229 30 -38 16 -88 33 -110 37 -92 15
-245 75 -288 113 -23 20 -6 32 48 32 27 0 77 -18 165 -59z m551 -37 c110 -33
159 -73 109 -89 -62 -20 -267 60 -245 96 9 14 76 11 136 -7z m-1781 -87 c0
-14 -20 -37 -32 -37 -10 0 -11 34 -1 43 11 12 33 8 33 -6z m3920 -36 c0 -19
-42 -107 -66 -138 -32 -42 -54 -43 -54 -4 0 39 83 151 112 151 4 0 8 -4 8 -9z
m-1706 -57 c153 -65 211 -85 293 -104 48 -12 122 -31 163 -44 41 -13 134 -31
205 -40 156 -20 201 -31 280 -67 108 -48 327 -127 459 -164 70 -20 138 -43
150 -50 14 -10 43 -14 82 -12 55 2 66 -1 120 -37 80 -53 184 -136 184 -147 0
-14 -21 -11 -123 21 -53 16 -167 47 -253 70 -146 38 -244 76 -259 100 -16 26
-92 50 -223 70 -173 26 -237 43 -282 79 -55 43 -54 43 -193 51 -89 6 -165 18
-232 36 -55 14 -122 31 -149 36 -28 5 -112 34 -189 64 -76 31 -178 65 -225 76
-151 36 -197 52 -197 68 0 12 18 16 80 21 136 11 240 2 309 -27z m720 -320 c9
-3 16 -10 16 -15 0 -14 -24 -11 -46 6 -16 12 -17 14 -2 15 9 0 23 -3 32 -6z"/>
<path d="M10626 2542 c-66 -106 -297 -595 -402 -852 -34 -85 -88 -209 -119
-275 -63 -132 -135 -293 -135 -300 0 -3 8 -5 18 -5 26 0 47 26 71 87 11 28 45
100 74 160 30 59 78 169 106 243 29 74 69 176 88 225 20 50 96 216 170 370
154 321 176 372 163 380 -5 3 -20 -12 -34 -33z"/>
<path d="M5435 1460 c-4 -6 7 -10 24 -10 17 0 31 5 31 10 0 6 -11 10 -24 10
-14 0 -28 -4 -31 -10z"/>
<path d="M7660 6935 c0 -10 7 -15 18 -13 21 4 19 22 -2 26 -10 2 -16 -3 -16
-13z"/>
<path d="M7562 6715 c-14 -31 -16 -91 -3 -99 16 -10 34 24 39 74 4 39 1 50
-10 50 -8 0 -20 -11 -26 -25z"/>
<path d="M7439 6483 c-11 -29 -4 -93 10 -93 23 0 46 67 36 101 -9 28 -34 23
-46 -8z"/>
<path d="M7283 6191 c9 -111 47 -157 47 -58 0 70 -17 127 -37 127 -14 0 -15
-10 -10 -69z"/>
<path d="M7141 5957 c3 -53 9 -91 17 -99 20 -20 32 7 32 72 0 57 -15 100 -39
108 -10 4 -12 -12 -10 -81z"/>
<path d="M6980 5804 c-23 -59 -2 -144 36 -144 11 0 14 15 14 66 0 93 -28 137
-50 78z"/>
<path d="M6804 5506 c-9 -24 15 -56 42 -56 35 0 43 29 15 52 -28 22 -50 23
-57 4z"/>
<path d="M6697 5304 c-13 -13 -7 -62 7 -67 20 -8 38 17 34 45 -3 22 -27 35
-41 22z"/>
<path d="M6574 5086 c-10 -26 15 -56 45 -56 15 0 30 3 34 6 11 11 -5 35 -34
49 -35 18 -38 19 -45 1z"/>
<path d="M6460 4867 c0 -29 18 -47 47 -47 30 0 31 33 1 54 -32 22 -48 20 -48
-7z"/>
<path d="M6357 4703 c-14 -14 -6 -61 14 -79 20 -18 21 -18 35 1 18 25 18 27
-7 59 -21 27 -31 31 -42 19z"/>
<path d="M6193 4453 c-4 -11 5 -27 30 -50 20 -18 41 -33 47 -33 19 0 10 38
-16 69 -29 34 -51 40 -61 14z"/>
<path d="M6084 4295 c-9 -22 15 -84 36 -95 24 -13 32 0 21 37 -19 65 -45 91
-57 58z"/>
<path d="M5966 4115 c-17 -46 8 -116 36 -99 14 9 3 83 -15 101 -12 13 -15 12
-21 -2z"/>
<path d="M5850 3907 c0 -28 17 -47 42 -47 27 0 33 27 13 50 -25 28 -55 26 -55
-3z"/>
<path d="M5656 3561 c-8 -13 37 -75 57 -79 21 -4 22 19 2 58 -15 29 -47 40
-59 21z"/>
<path d="M5564 3407 c-3 -8 -4 -36 -2 -63 3 -47 4 -49 36 -52 27 -3 32 0 32
18 0 23 -34 95 -50 105 -6 3 -13 0 -16 -8z"/>
<path d="M5464 3246 c-18 -46 27 -126 62 -112 19 7 13 43 -14 90 -20 35 -40
44 -48 22z"/>
<path d="M5370 3060 c0 -41 16 -70 39 -70 28 0 34 29 13 64 -26 44 -52 47 -52
6z"/>
<path d="M5276 2898 c12 -39 36 -68 55 -68 22 0 23 8 8 47 -12 31 -26 43 -52
43 -14 0 -17 -5 -11 -22z"/>
<path d="M5165 2761 c-8 -14 12 -93 26 -102 22 -13 39 2 39 37 0 46 -47 93
-65 65z"/>
<path d="M5094 2586 c-3 -14 -3 -30 1 -35 7 -12 48 -15 58 -5 9 10 -11 42 -33
54 -17 9 -20 7 -26 -14z"/>
<path d="M4983 2485 c-3 -9 -1 -33 5 -54 23 -75 103 -112 88 -40 -12 61 -79
129 -93 94z"/>
<path d="M4880 2293 c0 -26 71 -93 98 -93 34 0 28 35 -11 58 -19 11 -46 27
-60 37 -26 17 -27 17 -27 -2z"/>
<path d="M4756 2213 c-5 -11 10 -32 48 -69 53 -52 116 -93 116 -76 0 15 -131
162 -145 162 -7 0 -16 -7 -19 -17z"/>
</g>
</svg>
