<?xml version="1.0" standalone="no"?>
<!DOCTYPE svg PUBLIC "-//W3C//DTD SVG 20010904//EN"
 "http://www.w3.org/TR/2001/REC-SVG-20010904/DTD/svg10.dtd">
<svg version="1.0" xmlns="http://www.w3.org/2000/svg"
 width="1280.000000pt" height="660.000000pt" viewBox="0 0 1280.000000 660.000000"
 preserveAspectRatio="xMidYMid meet">
<metadata>
Created by potrace 1.15, written by Peter Selinger 2001-2017
</metadata>
<g transform="translate(0.000000,660.000000) scale(0.100000,-0.100000)"
fill="#000000" stroke="none">
<path d="M8155 6585 c-232 -51 -545 -66 -1315 -63 -624 3 -748 -2 -1000 -38
-408 -58 -737 -190 -985 -395 -115 -94 -279 -274 -323 -354 -28 -50 -25 -51
-123 20 -442 317 -928 424 -1489 326 -308 -54 -599 -156 -965 -336 -343 -169
-621 -335 -1160 -692 -165 -109 -319 -204 -342 -211 -111 -33 -215 -188 -254
-377 -11 -55 -27 -112 -35 -127 -9 -16 -14 -55 -14 -102 0 -85 -4 -89 -78 -99
-54 -7 -75 -23 -70 -56 5 -30 306 -523 963 -1576 703 -1127 933 -1502 1102
-1803 209 -372 315 -532 436 -659 l40 -42 147 74 c648 324 1417 650 2706 1144
188 72 429 170 535 217 336 148 485 204 654 245 117 29 321 31 480 6 247 -40
409 -30 610 37 132 45 196 77 377 192 215 137 310 189 407 224 174 63 371 100
756 140 110 12 414 48 675 81 1041 131 1715 208 2438 279 227 22 416 40 421
40 5 0 9 28 9 63 0 34 10 110 21 168 12 58 21 127 19 154 -3 49 -4 50 -93 123
-139 114 -421 324 -512 381 -46 29 -85 62 -89 74 -12 39 -4 127 17 185 36 100
41 120 30 141 -7 12 -18 17 -30 14 -13 -3 -34 8 -64 36 -37 34 -51 41 -79 39
-30 -2 -62 19 -254 158 -518 378 -879 627 -2329 1604 -442 298 -750 508 -1030
704 -60 42 -118 76 -130 75 -11 -1 -47 -7 -80 -14z m271 -206 c225 -157 854
-584 1559 -1059 523 -352 945 -642 1255 -860 277 -195 630 -453 630 -460 0 -7
-26 -11 -270 -35 -215 -21 -450 -33 -885 -45 -717 -19 -1045 -40 -1361 -85
-607 -87 -1062 -266 -1429 -562 -110 -89 -252 -232 -334 -335 -29 -38 -58 -68
-64 -68 -7 0 -44 34 -83 75 -38 41 -84 80 -102 88 -54 23 -388 334 -1332 1242
-786 756 -1071 1028 -1278 1219 l-161 149 31 46 c265 388 665 621 1210 705
221 34 304 38 1133 46 873 8 982 13 1185 54 36 8 74 14 86 15 12 0 101 -55
210 -130z m-4771 -378 c229 -47 444 -138 643 -272 124 -83 156 -108 163 -126
2 -6 81 -82 174 -169 242 -225 479 -449 795 -754 934 -901 1364 -1311 1686
-1606 117 -107 140 -132 134 -149 -9 -24 -6 -23 -250 -5 -656 48 -1380 -116
-2221 -505 -170 -79 -506 -247 -704 -352 -82 -44 -296 -158 -475 -253 -443
-236 -860 -444 -869 -434 -21 23 -236 347 -386 579 -183 284 -332 520 -710
1130 -435 701 -775 1229 -1020 1582 -43 62 -77 115 -74 117 17 16 642 425 776
509 733 455 1210 651 1778 731 17 2 127 3 245 1 169 -3 236 -8 315 -24z
m-3067 -1463 c241 -349 513 -772 957 -1488 516 -832 754 -1206 978 -1538 l131
-193 -12 -152 c-22 -259 -43 -431 -58 -464 -11 -25 -13 -54 -8 -128 4 -52 4
-95 1 -95 -3 0 -151 228 -330 508 -705 1104 -1157 1823 -1683 2681 -264 431
-301 496 -287 506 12 9 15 27 14 70 -2 100 38 276 83 363 19 37 74 102 86 102
5 0 62 -78 128 -172z m11374 -702 c3 -14 3 -69 0 -124 -4 -90 -3 -100 15 -113
16 -11 21 -30 26 -99 7 -93 27 -173 86 -344 21 -61 41 -128 45 -148 6 -35 5
-38 -16 -38 -1264 -12 -1781 -26 -2133 -56 -866 -74 -1405 -264 -1746 -615
l-86 -88 -26 57 c-14 31 -40 90 -58 130 -37 83 -81 128 -135 138 -63 12 -195
-4 -303 -35 -57 -17 -117 -31 -133 -31 -28 0 -30 2 -23 27 16 66 26 82 181
288 181 241 414 444 674 587 185 102 454 200 700 256 396 91 760 122 1695 147
481 12 957 44 1130 74 89 15 102 14 107 -13z m-4819 -1035 c45 -6 73 -15 81
-26 9 -12 33 -20 73 -24 l61 -6 -106 -160 c-166 -254 -208 -359 -219 -556 l-6
-106 -231 -6 c-915 -25 -1683 -248 -2624 -764 -86 -47 -350 -197 -587 -333
-585 -336 -889 -499 -903 -486 -3 3 7 50 22 104 18 71 26 123 26 184 0 48 7
144 15 215 8 70 21 197 28 281 8 84 16 154 18 156 2 2 110 56 239 119 129 64
451 231 715 372 1126 602 1621 816 2205 954 181 43 426 81 615 95 84 6 505 -3
578 -13z"/>
</g>
</svg>
